<?xml version="1.0" encoding="UTF-8" standalone="no"?>
<!-- Created with Inkscape (http://www.inkscape.org/) -->

<svg
   xmlns:dc="http://purl.org/dc/elements/1.1/"
   xmlns:cc="http://creativecommons.org/ns#"
   xmlns:rdf="http://www.w3.org/1999/02/22-rdf-syntax-ns#"
   xmlns:svg="http://www.w3.org/2000/svg"
   xmlns="http://www.w3.org/2000/svg"
   xmlns:sodipodi="http://sodipodi.sourceforge.net/DTD/sodipodi-0.dtd"
   xmlns:inkscape="http://www.inkscape.org/namespaces/inkscape"
   width="622.21338"
   height="359.5737"
   id="svg2"
   version="1.1"
   inkscape:version="0.48.2 r9819"
   sodipodi:docname="collection.svg">
  <defs
     id="defs4" />
  <sodipodi:namedview
     id="base"
     pagecolor="#ffffff"
     bordercolor="#666666"
     borderopacity="1.0"
     inkscape:pageopacity="0.0"
     inkscape:pageshadow="2"
     inkscape:zoom="1.4"
     inkscape:cx="542.29662"
     inkscape:cy="192.63208"
     inkscape:document-units="px"
     inkscape:current-layer="layer1"
     showgrid="false"
     fit-margin-top="2"
     fit-margin-left="2"
     fit-margin-right="2"
     fit-margin-bottom="2"
     inkscape:window-width="1366"
     inkscape:window-height="706"
     inkscape:window-x="-8"
     inkscape:window-y="-8"
     inkscape:window-maximized="1" />
  <metadata
     id="metadata7">
    <rdf:RDF>
      <cc:Work
         rdf:about="">
        <dc:format>image/svg+xml</dc:format>
        <dc:type
           rdf:resource="http://purl.org/dc/dcmitype/StillImage" />
        <dc:title />
      </cc:Work>
    </rdf:RDF>
  </metadata>
  <g
     inkscape:label="Layer 1"
     inkscape:groupmode="layer"
     id="layer1"
     transform="translate(-70.730989,-80.615738)">
    <rect
       style="fill:#0000ff"
       id="rect2985"
       width="185.86807"
       height="119.198"
       x="82.832512"
       y="96.757874" />
    <rect
       style="fill:#ff0000"
       id="rect2987"
       width="54.548237"
       height="117.1777"
       x="197.9899"
       y="254.34166" />
    <path
       sodipodi:type="arc"
       style="fill:#00ff00"
       id="path2989"
       sodipodi:cx="386.88843"
       sodipodi:cy="252.32137"
       sodipodi:rx="87.88327"
       sodipodi:ry="24.243662"
       d="m 474.7717,252.32137 c 0,13.3894 -39.34668,24.24366 -87.88327,24.24366 -48.53659,0 -87.88327,-10.85426 -87.88327,-24.24366 0,-13.38941 39.34668,-24.24367 87.88327,-24.24367 48.53659,0 87.88327,10.85426 87.88327,24.24367 z"
       transform="translate(40.406102,-14.142136)" />
    <path
       sodipodi:type="arc"
       style="fill:#800000"
       id="path2991"
       sodipodi:cx="102.02541"
       sodipodi:cy="307.87976"
       sodipodi:rx="29.294424"
       sodipodi:ry="29.294424"
       d="m 131.31984,307.87976 a 29.294424,29.294424 0 1 1 -58.588851,0 29.294424,29.294424 0 1 1 58.588851,0 z"
       transform="translate(23.203772,18.060194)" />
    <path
       style="fill:#008000;stroke:#000000;stroke-width:1px;stroke-linecap:butt;stroke-linejoin:miter;stroke-opacity:1"
       d="m 513.15749,110.90001 129.29953,2.0203 c 0,0 20.20305,88.89343 -44.44671,58.58886 -64.64976,-30.30458 -76.77159,-18.18275 -76.77159,-18.18275 z"
       id="path2993"
       inkscape:connector-curvature="0" />
    <path
       sodipodi:type="star"
       style="fill:#0000ff"
       id="path2995"
       sodipodi:sides="3"
       sodipodi:cx="341.43155"
       sodipodi:cy="389.70212"
       sodipodi:r1="65.776367"
       sodipodi:r2="32.888184"
       sodipodi:arg1="0.82884906"
       sodipodi:arg2="1.8760466"
       inkscape:flatsided="true"
       inkscape:rounded="0"
       inkscape:randomized="0"
       d="m 385.87826,438.18944 -108.66132,-34.239 83.98251,-76.98396 z"
       inkscape:transform-center-x="2.3046526"
       inkscape:transform-center-y="-4.0487239"
       transform="translate(36.365492,-24.243661)" />
    <path
       sodipodi:type="star"
       style="fill:#ff2a2a"
       id="path2997"
       sodipodi:sides="5"
       sodipodi:cx="515.1778"
       sodipodi:cy="302.82898"
       sodipodi:r1="78.688225"
       sodipodi:r2="39.344112"
       sodipodi:arg1="0.50959226"
       sodipodi:arg2="1.1379108"
       inkscape:flatsided="true"
       inkscape:rounded="0"
       inkscape:randomized="0"
       d="m 583.86817,341.21478 -83.97094,38.80449 -62.85372,-67.86986 45.12521,-80.75038 90.74263,17.96339 z"
       inkscape:transform-center-x="-0.55105572"
       inkscape:transform-center-y="-19.192898"
       transform="translate(80.812205,38.385797)" />
    <path
       sodipodi:type="arc"
       style="fill:#ffff00"
       id="path3003"
       sodipodi:cx="322.23865"
       sodipodi:cy="77.741142"
       sodipodi:rx="47.477169"
       sodipodi:ry="35.355339"
       d="m 369.71582,77.741142 c 0,19.526215 -21.25626,35.355338 -47.47717,35.355338 -26.22092,0 -47.47717,-15.829123 -47.47717,-35.355338 0,-19.526214 21.25625,-35.355339 47.47717,-35.355339 0.80105,0 1.60198,0.0151 2.40201,0.04528 l -2.40201,35.310061 z"
       transform="translate(70.730989,80.615738)"
       sodipodi:start="0"
       sodipodi:end="4.7630035" />
    <rect
       style="fill:none;stroke:none"
       id="rect3011"
       width="59.285713"
       height="60"
       x="94.302422"
       y="295.90372" />
    <rect
       style="fill:none;stroke:none"
       id="rect3781"
       width="112.85712"
       height="115.00002"
       x="240"
       y="219.5737"
       transform="translate(70.730989,80.615738)" />
    <rect
       style="fill:none;stroke:none"
       id="rect3783"
       width="180.00014"
       height="48.571445"
       x="265.71429"
       y="131.71655"
       transform="translate(70.730989,80.615738)" />
    <rect
       style="fill:none;stroke:none"
       id="rect3785"
       width="95.714294"
       height="73.571426"
       x="274.28571"
       y="41.002274"
       transform="translate(70.730989,80.615738)"
       ry="7.1428571" />
    <rect
       style="fill:none;stroke:none"
       id="rect3789"
       width="137.85715"
       height="71.428574"
       x="438.57141"
       y="27.430845"
       transform="translate(70.730989,80.615738)" />
    <rect
       style="fill:none;stroke:none"
       id="rect3791"
       width="145.71428"
       height="159.28572"
       x="448.57141"
       y="186.71655"
       transform="translate(70.730989,80.615738)" />
  </g>
</svg>
