<?xml version="1.0" encoding="UTF-8" standalone="no"?>
<!-- Created with Inkscape (http://www.inkscape.org/) -->

<svg
   xmlns:dc="http://purl.org/dc/elements/1.1/"
   xmlns:cc="http://creativecommons.org/ns#"
   xmlns:rdf="http://www.w3.org/1999/02/22-rdf-syntax-ns#"
   xmlns:svg="http://www.w3.org/2000/svg"
   xmlns="http://www.w3.org/2000/svg"
   xmlns:sodipodi="http://sodipodi.sourceforge.net/DTD/sodipodi-0.dtd"
   xmlns:inkscape="http://www.inkscape.org/namespaces/inkscape"
   width="133.33281"
   height="128.4021"
   id="svg2"
   version="1.1"
   inkscape:version="0.48.2 r9819"
   sodipodi:docname="my.svg">
  <defs
     id="defs4" />
  <sodipodi:namedview
     id="base"
     pagecolor="#ffffff"
     bordercolor="#666666"
     borderopacity="1.0"
     inkscape:pageopacity="0.0"
     inkscape:pageshadow="2"
     inkscape:zoom="2.8"
     inkscape:cx="80.381861"
     inkscape:cy="52.241851"
     inkscape:document-units="px"
     inkscape:current-layer="layer1"
     showgrid="false"
     inkscape:window-width="1378"
     inkscape:window-height="878"
     inkscape:window-x="54"
     inkscape:window-y="-8"
     inkscape:window-maximized="1"
     fit-margin-top="1.1"
     fit-margin-left="1.1"
     fit-margin-right="1.1"
     fit-margin-bottom="1.1" />
  <metadata
     id="metadata7">
    <rdf:RDF>
      <cc:Work
         rdf:about="">
        <dc:format>image/svg+xml</dc:format>
        <dc:type
           rdf:resource="http://purl.org/dc/dcmitype/StillImage" />
        <dc:title />
      </cc:Work>
    </rdf:RDF>
  </metadata>
  <g
     inkscape:label="Layer 1"
     inkscape:groupmode="layer"
     id="layer1"
     transform="translate(-57.388079,-49.852469)">
    <g
       id="g2990"
       onclick="send('tag')">
      <text
         sodipodi:linespacing="125%"
         id="text2985"
         y="79.585281"
         x="55.558392"
         style="font-size:40px;font-style:normal;font-weight:normal;line-height:125%;letter-spacing:0px;word-spacing:0px;fill:#000000;fill-opacity:1;stroke:none;font-family:Sans"
         xml:space="preserve"><tspan
           y="79.585281"
           x="55.558392"
           id="tspan2987"
           sodipodi:role="line">Bobuka</tspan></text>
      <path
         inkscape:connector-curvature="0"
         id="path2991"
         d="m 96.974644,113.93047 c 0.384214,1.92106 0.98491,6.01043 2.020305,8.08122 0.212959,0.42592 0.859568,0.5584 1.010151,1.01015 0.63888,0.90648 -0.319436,2.07214 0,3.03046 -0.608846,1.82831 1.63639,1.87871 2.02031,3.03046 0.21296,0.63887 -0.21296,1.38142 0,2.0203 0.0751,0.22526 3.74486,3.89274 4.04061,4.04061 0.30117,0.15059 0.67343,0 1.01015,0 0.33672,0 0.77206,0.2381 1.01015,0 0.47619,-0.47619 -0.30117,-1.41797 0,-2.0203 0.21296,-0.42592 0.67344,-0.67344 1.01015,-1.01016 0,-0.67343 -0.16333,-1.36697 0,-2.0203 0.18262,-0.73044 0.67344,-1.34687 1.01016,-2.02031 0.33671,-0.67343 0.5925,-1.39383 1.01015,-2.0203 0.26414,-0.39622 0.79719,-0.58424 1.01015,-1.01015 0.47619,-0.95238 0.41951,-2.1445 1.01016,-3.03046 0.18677,-0.28017 0.77205,0.23809 1.01015,0 0.0325,-0.0325 0,-2.78547 0,-3.03046"
         style="fill:none;stroke:#000000;stroke-width:1px;stroke-linecap:butt;stroke-linejoin:miter;stroke-opacity:1" />
      <path
         inkscape:connector-curvature="0"
         id="path2993"
         d="m 152.53303,115.95077 c -3.03045,0 -6.06091,0 -9.09137,0 -2.35702,0 -4.71404,0 -7.07107,0 -0.33671,0 -0.77205,-0.23809 -1.01015,0 -0.23809,0.2381 0.15059,0.70899 0,1.01016 -3.35025,3.35025 0.47619,-0.95239 -1.01015,2.0203 -0.42592,0.85184 -1.71914,1.1168 -2.02031,2.02031 -0.17236,0.51708 0,5.33874 0,6.06091 0,0.24499 -0.0325,2.99797 0,3.03046 0.2381,0.23809 0.69072,-0.10648 1.01016,0 1.42857,0.47619 2.57972,1.65508 4.04061,2.0203 1.30665,0.32667 2.79007,-0.50021 4.04061,0 1.12722,0.45089 1.90323,1.56942 3.03045,2.02031 0.62527,0.25011 1.36698,-0.16333 2.02031,0 0.73044,0.18261 1.282,0.86249 2.0203,1.01015 0.98038,0.19608 6.88258,0 8.08122,0 0.24499,0 2.99798,0.0325 3.03046,0 0.2381,-0.23809 -0.15058,-0.70898 0,-1.01015 0.21296,-0.42592 0.85957,-0.5584 1.01015,-1.01015 0.18103,-0.54307 0,-3.18537 0,-4.04061 0,-2.35703 0,-4.71405 0,-7.07107 0,-0.33672 0.2381,-0.77206 0,-1.01015 -0.23809,-0.2381 -0.77205,0.23809 -1.01015,0 -0.23809,-0.2381 0.2381,-0.77206 0,-1.01016 -0.23809,-0.23809 -0.77206,0.2381 -1.01015,0 -0.2381,-0.23809 0.23809,-0.77205 0,-1.01015 -0.2381,-0.23809 -0.70898,0.15059 -1.01015,0 -1.75611,-0.87805 -3.36718,-2.0203 -5.05077,-3.03046 z"
         style="fill:none;stroke:#000000;stroke-width:1px;stroke-linecap:butt;stroke-linejoin:miter;stroke-opacity:1" />
      <path
         inkscape:connector-curvature="0"
         id="path2995"
         d="m 159.6041,136.15382 c 0,9.76481 0,19.52962 0,29.29443 0,0.0698 0.14976,6.77154 0,7.07107 -0.15058,0.30116 -0.85957,-0.30117 -1.01015,0 -0.30117,0.60233 0.47619,1.54411 0,2.0203 -0.47619,0.47619 -1.41797,-0.30117 -2.02031,0 -0.30116,0.15059 0.30117,0.85957 0,1.01015 -0.60233,0.30117 -1.34687,0 -2.0203,0 -0.85726,0 -5.50404,-0.18562 -6.06092,0 -0.45175,0.15059 -0.55839,0.85957 -1.01015,1.01016 -0.63887,0.21295 -1.34687,0 -2.0203,0 -0.67344,0 -1.34687,0 -2.02031,0 -0.67343,0 -1.34687,0 -2.0203,0 -0.33672,0 -0.70899,0.15058 -1.01016,0 -1.00766,-0.50384 -2.78902,-3.07488 -3.03045,-4.04061 -0.87472,-3.49886 1.27913,-0.60669 -1.01016,-4.04061 -0.26414,-0.39622 -0.79719,-0.58424 -1.01015,-1.01016 -1.18005,-2.36011 -1.01015,-3.65181 -1.01015,-6.06091 0,-0.67344 0,-1.34687 0,-2.02031 0,-0.33671 -0.15059,-0.70898 0,-1.01015 0.21296,-0.42592 0.79719,-0.58423 1.01015,-1.01015 0.15059,-0.30117 -0.23809,-0.77206 0,-1.01016 0.2381,-0.23809 0.77206,0.2381 1.01015,0 0.2381,-0.23809 -0.23809,-0.77205 0,-1.01015 0.0325,-0.0325 2.78547,0 3.03046,0 2.35702,0 4.71405,0 7.07107,0 1.01015,0 2.05046,0.245 3.03046,0 2.69374,-0.67343 1.68358,-1.01015 3.03045,-3.03046 0.26415,-0.39621 0.85957,-0.55839 1.01016,-1.01015 0.39641,-1.18923 -0.33509,-4.72057 0,-6.06091 0.18261,-0.73045 0.77205,-1.30602 1.01015,-2.02031 0.21296,-0.63887 0,-1.34687 0,-2.0203"
         style="fill:none;stroke:#000000;stroke-width:1px;stroke-linecap:butt;stroke-linejoin:miter;stroke-opacity:1" />
      <path
         inkscape:connector-curvature="0"
         id="path2997"
         d="m 86.428572,113.79075 c 0,-15.714283 -10.357143,-14.999997 -10.357143,-14.999997 0,0 1.785714,0 -5.714286,0 -7.5,0 -8.571429,14.642857 -8.571429,14.642857 0,0 0.714286,-2.5 0.357143,3.21429 -0.357143,5.71428 11.785715,7.14285 11.785715,7.14285"
         style="fill:none;stroke:#000000;stroke-width:1px;stroke-linecap:butt;stroke-linejoin:miter;stroke-opacity:1" />
      <path
         inkscape:connector-curvature="0"
         id="path2999"
         d="m 72.857143,123.79075 c 15,0 13.571429,3.92857 13.928571,10.71429 C 87.142857,141.29075 75,144.1479 75,144.1479 c 0,0 5.714286,-1.42858 -2.5,-1.07143 -8.214286,0.35714 -11.428571,-7.14286 -11.428571,-7.14286 l 1.071428,-1.07143"
         style="fill:none;stroke:#000000;stroke-width:1px;stroke-linecap:butt;stroke-linejoin:miter;stroke-opacity:1" />
      <rect
         ry="7.1428571"
         transform="translate(57.388079,49.852469)"
         y="0.18781389"
         x="0.35714287"
         height="127.5"
         width="131.78572"
         id="rect3009"
         style="fill:none;stroke:none" />
    </g>
  </g>
</svg>
